<svg height="512" viewBox="0 0 64 64" width="512" xmlns="http://www.w3.org/2000/svg"><g id="Layer_9" data-name="Layer 9"><rect fill="#da0037" height="64" rx="10" width="64"/><g fill="#f4eee9"><circle cx="14" cy="14" r="6"/><circle cx="50" cy="50" r="6"/><circle cx="32" cy="32" r="6"/><circle cx="14" cy="50" r="6"/><circle cx="50" cy="14" r="6"/></g><path d="m64 10v44a10.0036 10.0036 0 0 1 -10 10h-44a10.0036 10.0036 0 0 1 -10-10v-7.58a27.9574 27.9574 0 0 0 24 13.58h10a25.9992 25.9992 0 0 0 26-26v-10a27.9574 27.9574 0 0 0 -13.58-24h7.58a10.0036 10.0036 0 0 1 10 10z" opacity=".2"/></g></svg>